#!OML:ASF H:\Not Pregnant\Project 1\Capture day 1\Session 1\non-pregnant.ASF
:FULLY-SPECIFIED
:DEGREES
1739
root -8.51072 15.8739 45.9595 681.28 -92.4265 -662.139
lowerback -5.26047 2.51985 4.41693
upperback -9.39254 2.95608 0.0948153
thorax -6.65696 1.01096 -2.35598
lowerneck 16.4923 -9.5569 -30.6076
upperneck -5.17779 -19.6474 40.6078
head 3.80042 -12.061 19.9365
rclavicle 2.39784e-015 -6.36111e-015
rhumerus -34.9762 -12.1004 -78.4028
rradius 30.645
rwrist 21.4716
rhand -11.3194 3.63155
rfingers 7.12502
rthumb 14.7127 -25.8264
lclavicle 2.39784e-015 -6.36111e-015
lhumerus -51.1946 -1.75703 85.5321
lradius 33.6554
lwrist 34.486
lhand -7.0086 -7.17295
lfingers 7.12502
lthumb 18.8626 21.9325
rfemur -31.74 -13.5652 28.1577
rtibia 30.0401
rfoot -18.5615 25.3215
rtoes 3.3125
lfemur -28.983 0.961459 -14.8671
ltibia 28.6515
lfoot -17.5401 -2.14796
ltoes -25.8502
1740
root -8.51865 15.8757 45.977 685.384 -92.5541 -666.357
lowerback -5.33555 2.41654 4.19632
upperback -9.36794 2.81604 0.152081
thorax -6.60816 0.959296 -2.17027
lowerneck 16.5397 -9.45216 -30.7317
upperneck -5.01531 -19.5867 40.6023
head 3.82326 -12.0367 19.992
rclavicle 1.97418e-014 1.0138e-014
rhumerus -35.0558 -12.0634 -78.4113
rradius 30.7064
rwrist 20.9242
rhand -11.6628 3.33234
rfingers 7.12502
rthumb 14.3819 -26.1494
lclavicle 1.97418e-014 1.0138e-014
lhumerus -51.1328 -2.2831 86.0248
lradius 33.9198
lwrist 34.4878
lhand -7.83542 -7.78749
lfingers 7.12502
lthumb 18.0672 21.3934
rfemur -31.5068 -13.0034 27.8847
rtibia 30.0146
rfoot -18.67 24.7941
rtoes 2.59448
lfemur -28.7581 1.1403 -15.0133
ltibia 28.6083
lfoot -17.5748 -2.10183
ltoes -25.5877
1741
root -8.52679 15.8775 45.9944 688.099 -92.6779 -669.189
lowerback -5.41351 2.28474 4.00645
upperback -9.34858 2.63915 0.258361
thorax -6.56586 0.888202 -1.95067
lowerneck 16.5753 -9.3396 -30.9521
upperneck -4.83048 -19.5286 40.5558
head 3.86038 -12.0067 20.0422
rclavicle -2.32205e-014 -9.74045e-015
rhumerus -35.1326 -11.9787 -78.3802
rradius 30.7551
rwrist 20.4427
rhand -11.9862 3.02779
rfingers 7.12502
rthumb 14.0703 -26.4759
lclavicle -2.32205e-014 -9.74045e-015
lhumerus -51.0922 -2.73002 86.5493
lradius 34.1833
lwrist 34.4284
lhand -8.7568 -8.45107
lfingers 7.12502
lthumb 17.1805 20.8094
rfemur -31.2606 -12.5169 27.6555
rtibia 29.9576
rfoot -18.7485 24.3226
rtoes 1.96035
lfemur -28.5468 1.31421 -15.1402
ltibia 28.5815
lfoot -17.6289 -2.06989
ltoes -25.2343
1742
root -8.5353 15.8791 46.0124 689.84 -92.8025 -671.047
lowerback -5.49451 2.12927 3.84564
upperback -9.3335 2.43077 0.385996
thorax -6.52671 0.799676 -1.72524
lowerneck 16.577 -9.21928 -31.212
upperneck -4.6028 -19.4688 40.4997
head 3.91773 -11.972 20.0934
rclavicle 8.02593e-015 6.75868e-015
rhumerus -35.2033 -11.9231 -78.3414
rradius 30.772
rwrist 20.0972
rhand -12.2531 2.77183
rfingers 7.12502
rthumb 13.8131 -26.7496
lclavicle 8.02593e-015 6.75868e-015
lhumerus -51.0413 -3.03097 86.9667
lradius 34.4544
lwrist 34.35
lhand -9.54945 -9.04834
lfingers 7.12502
lthumb 16.4175 20.2769
rfemur -31.0117 -12.1417 27.481
rtibia 29.8769
rfoot -18.8032 23.9643
rtoes 1.45539
lfemur -28.3455 1.47914 -15.2427
ltibia 28.5686
lfoot -17.7027 -2.0411
ltoes -24.8302
1743
root -8.54453 15.8804 46.0305 690.736 -92.921 -672.069
lowerback -5.5709 1.98878 3.73412
upperback -9.31604 2.24176 0.488944
thorax -6.48229 0.716861 -1.55346
lowerneck 16.5817 -9.12481 -31.4193
upperneck -4.38609 -19.4347 40.4419
head 3.97531 -11.9511 20.1249
rclavicle 1.64122e-014 -4.57205e-015
rhumerus -35.2968 -11.8079 -78.3611
rradius 30.8107
rwrist 19.6821
rhand -12.4989 2.52225
rfingers 7.12502
rthumb 13.5762 -27.0151
lclavicle 1.64122e-014 -4.57205e-015
lhumerus -50.9503 -3.35966 87.2857
lradius 34.76
lwrist 34.4525
lhand -10.0452 -9.50672
lfingers 7.12502
lthumb 15.9402 19.8573
rfemur -30.7536 -11.8965 27.359
rtibia 29.7809
rfoot -18.8362 23.7408
rtoes 1.12075
lfemur -28.1409 1.63673 -15.3211
ltibia 28.5654
lfoot -17.7992 -2.02454
ltoes -24.4196
1744
root -8.55301 15.8815 46.0538 690.806 -93.0145 -672.232
lowerback -5.65892 1.87749 3.74885
upperback -9.31138 2.087 0.534458
thorax -6.43677 0.640089 -1.51196
lowerneck 16.6029 -9.05587 -31.5423
upperneck -4.19294 -19.4192 40.3835
head 4.02058 -11.9419 20.1334
rclavicle 1.02747e-014 -2.98177e-015
rhumerus -35.4179 -11.7125 -78.4164
rradius 30.8543
rwrist 19.2805
rhand -12.711 2.29373
rfingers 7.12502
rthumb 13.3717 -27.2572
lclavicle 1.02747e-014 -2.98177e-015
lhumerus -50.8053 -3.72577 87.4867
lradius 35.0843
lwrist 34.7056
lhand -10.233 -9.83143
lfingers 7.12502
lthumb 15.7593 19.547
rfemur -30.5647 -11.9236 27.3094
rtibia 29.6761
rfoot -18.8246 23.8067
rtoes 1.0608
lfemur -27.9898 1.69732 -15.3838
ltibia 28.569
lfoot -17.8821 -1.95171
ltoes -24.0643
